<?xml version="1.0" encoding="utf-8"?>
<!-- Generator: Adobe Illustrator 16.0.0, SVG Export Plug-In . SVG Version: 6.00 Build 0)  -->
<!DOCTYPE svg PUBLIC "-//W3C//DTD SVG 1.1//EN" "http://www.w3.org/Graphics/SVG/1.1/DTD/svg11.dtd">
<svg version="1.1" id="Layer_1" xmlns="http://www.w3.org/2000/svg" xmlns:xlink="http://www.w3.org/1999/xlink" x="0px" y="0px"
	 width="2880px" height="600px" viewBox="0 0 2880 600" enable-background="new 0 0 2880 600" xml:space="preserve">
<g>
	<path fill-rule="evenodd" clip-rule="evenodd" fill="none" stroke="#A7484A" stroke-width="3" stroke-miterlimit="10" d="
		M0,195.876c78.258-33.939,499.839-186.303,1480.447-35.87c936.13,143.61,1315.234,18.505,1399.553-17.333"/>
	<path fill-rule="evenodd" clip-rule="evenodd" fill="none" stroke="#A7484A" stroke-width="3" stroke-miterlimit="10" d="
		M0,216.444c87.191-39.303,516.091-196.819,1489.466-49.607C2413.959,306.699,2790.239,197.917,2880,164.72"/>
	<path fill-rule="evenodd" clip-rule="evenodd" fill="none" stroke="#A7484A" stroke-width="3" stroke-miterlimit="10" d="
		M0,237.013c96.125-44.666,532.344-207.335,1498.484-63.344C2411.341,309.782,2784.797,217.321,2880,186.766"/>
	<path fill-rule="evenodd" clip-rule="evenodd" fill="none" stroke="#A7484A" stroke-width="3" stroke-miterlimit="10" d="
		M0,257.581c105.058-50.029,548.597-217.851,1507.503-77.082c901.22,132.366,1271.852,56.227,1372.497,28.313"/>
	<path fill-rule="evenodd" clip-rule="evenodd" fill="none" stroke="#A7484A" stroke-width="3" stroke-miterlimit="10" d="
		M0,278.148c113.991-55.392,564.849-228.366,1516.521-90.819c889.584,128.618,1257.391,68.801,1363.479,43.529"/>
	<path fill-rule="evenodd" clip-rule="evenodd" fill="none" stroke="#A7484A" stroke-width="3" stroke-miterlimit="10" d="
		M0,298.717C122.924,237.961,581.102,59.834,1525.54,194.161c877.947,124.87,1242.93,81.375,1354.461,58.744"/>
</g>
</svg>
