<?xml version="1.0" encoding="utf-8"?>
<!-- Generator: Adobe Illustrator 16.0.0, SVG Export Plug-In . SVG Version: 6.00 Build 0)  -->
<!DOCTYPE svg PUBLIC "-//W3C//DTD SVG 1.1//EN" "http://www.w3.org/Graphics/SVG/1.1/DTD/svg11.dtd">
<svg version="1.1" xmlns="http://www.w3.org/2000/svg" xmlns:xlink="http://www.w3.org/1999/xlink" x="0px" y="0px"
	 width="627.199px" height="268.307px" viewBox="0 0 627.199 268.307" enable-background="new 0 0 627.199 268.307"
	 xml:space="preserve">
<g id="Layer_1">
</g>
<g id="Layer_4">
	<linearGradient id="SVGID_1_" gradientUnits="userSpaceOnUse" x1="362.9668" y1="310.4077" x2="402.6028" y2="94.2952">
		<stop  offset="0" style="stop-color:#F0D0B4;stop-opacity:0"/>
		<stop  offset="0.1444" style="stop-color:#EAC5A5;stop-opacity:0.1444"/>
		<stop  offset="0.3521" style="stop-color:#E4BA96;stop-opacity:0.3521"/>
		<stop  offset="0.6015" style="stop-color:#E0B48E;stop-opacity:0.6015"/>
		<stop  offset="1" style="stop-color:#DFB28B"/>
	</linearGradient>
	<path display="none" fill-rule="evenodd" clip-rule="evenodd" fill="url(#SVGID_1_)" d="M611.561,48.917
		c0,0-85.45,78.875-271.179,110.197c0,0-23.359,9.718-65.104,43.772C245.635,227.069,210,242.667,210,242.667l-38,15.016
		l36.284-157.266C208.284,100.417,475.121,95.167,611.561,48.917z"/>
	<g id="hand_x5F_outerline">
		<defs>
			<filter id="Adobe_OpacityMaskFilter" filterUnits="userSpaceOnUse" x="128.229" y="-0.5" width="499.47" height="113.543">
				<feFlood  style="flood-color:white;flood-opacity:1" result="back"/>
				<feBlend  in="SourceGraphic" in2="back" mode="normal"/>
			</filter>
		</defs>
		<mask maskUnits="userSpaceOnUse" x="128.229" y="-0.5" width="499.47" height="113.543" id="hand_2_">
			<g filter="url(#Adobe_OpacityMaskFilter)">
				<ellipse opacity="0.7" fill-rule="evenodd" clip-rule="evenodd" cx="40.5" cy="141.667" rx="120.5" ry="200"/>
			</g>
		</mask>
		<linearGradient id="hand_3_" gradientUnits="userSpaceOnUse" x1="128.229" y1="56.2715" x2="627.6992" y2="56.2715">
			<stop  offset="0" style="stop-color:#CEA28B"/>
			<stop  offset="1" style="stop-color:#000000;stop-opacity:0.5"/>
		</linearGradient>
		
			<path id="hand" mask="url(#hand_2_)" fill-rule="evenodd" clip-rule="evenodd" fill="#ECC19C" stroke="url(#hand_3_)" stroke-miterlimit="10" d="
			M161.333,111.668c0,0,40.336,0.954,46.337,0.869c29.777-0.423,120.392-1.854,142.44-3.87
			c167.217-18.489,167.309-18.874,203.997-34.5c37.881-16.133,58.348-19.68,64.797-35.473c0,0,16.771-15.531,2.62-22.208
			c-21.34-10.069-31.371-18.691-58.417-14.983c-23,3.153-81.698-7.938-121.628,4.739c-38.558,12.242-116.424,29.528-123.646,30.681
			c-15.689,2.504-91.016,13.027-113.727,18.684c-15.406,3.837-66.05,1.888-75.644,6.965"/>
		<path fill-rule="evenodd" clip-rule="evenodd" fill="#ECC19C" d="M53.865,129.167c0,0-49.365,92.355,26.385,23.428
			c0,0,63.232-14.743,84.25-47.428s-10.367-51.408-23.184-45.204S53.865,129.167,53.865,129.167z"/>
		<linearGradient id="SVGID_2_" gradientUnits="userSpaceOnUse" x1="5.0918" y1="204.7456" x2="37.2798" y2="204.7456">
			<stop  offset="0" style="stop-color:#CEA28B"/>
			<stop  offset="1" style="stop-color:#000000;stop-opacity:0.5"/>
		</linearGradient>
		<path fill-rule="evenodd" clip-rule="evenodd" fill="#ECC19C" stroke="url(#SVGID_2_)" stroke-miterlimit="10" d="M27.476,151.595
			c0,0-15.127,21.642-18.341,42.072c0,0-4.267,2.26-3.436,9.22s1.111,16.286,4.456,37.033s6.913,19.094,6.379,15.747
			s6.787,2.779,6.787-15c0,0,3.461-9.561-1.93-37.78c0,0,14.723-29.714,15.391-37.208"/>
		<g>
			<path fill-rule="evenodd" clip-rule="evenodd" fill="#ECC19C" d="M152.786,59.661c0,0-22.786-6.567-32.286,5.72
				s-78.903,61.159-86.021,65.743s-3.617,3.333-8.107,14.5s-7.865,39.856-7.369,58.2c0,0-2.036,5.344,1.318,11.344
				c0,0,6.752,20.753,17.404,36.5c0,0,12.333,26,11.304,13c0,0,10.529-3,1-20.5c0,0-5.279-19.54-13.304-37c0,0,6.095-12.5,8.935-39"
				/>
			<g>
				
					<image overflow="visible" width="135.03" height="211.4" xlink:href="6E98EF5.png"  transform="matrix(1 0 0 1 17.895 57.4058)"/>
			</g>
		</g>
		<g>
			<path fill-rule="evenodd" clip-rule="evenodd" fill="#ECC19C" d="M43.907,152.595c0,0,1.407,1.422,0,11.247
				s-6.957,17.073-6.182,41.949c0,0-2.8,8.608,2.487,10.492c0,0,9.536,21.884,12.912,24.884c0,0,1.876,5.5,5.876,10.5s2.5-4,2.5-4
				s6.471-4.901,1.5-16.5c0,0-5.752-18-9.876-25.5c0,0,8.057-22.215,7.466-36.107"/>
			<g>
				
					<image overflow="visible" width="28.876" height="101.436" xlink:href="6E98EF7.png"  transform="matrix(1 0 0 1 36.4858 152.2437)"/>
			</g>
		</g>
		<g>
			<path fill-rule="evenodd" clip-rule="evenodd" fill="#ECC19C" d="M60.667,154.334c0,0-7.188,24.305-5.74,42.607
				c0,0-2.846,6.392,0.781,10.726s0.95,6.074,9.171,16c0,0,12.789,20.333,9.789,7.667c0,0,4.333-2.333-1-13.333
				c0,0-2.333-9.896-6-16.114c0,0,9.003-39.045,7.333-38.553c0,0,9.667,2.915,23.667-8.739c0,0,52.683-14.738,62.667-42.927"/>
			<g>
				
					<image overflow="visible" width="108.438" height="124.485" xlink:href="6E98EF2.png"  transform="matrix(1 0 0 1 53.3667 111.5015)"/>
			</g>
		</g>
	</g>
	<defs>
		<filter id="Adobe_OpacityMaskFilter_1_" filterUnits="userSpaceOnUse" x="52.66" y="-48.069" width="571.141" height="281.479">
			<feColorMatrix  type="matrix" values="1 0 0 0 0  0 1 0 0 0  0 0 1 0 0  0 0 0 1 0"/>
		</filter>
	</defs>
	<mask maskUnits="userSpaceOnUse" x="52.66" y="-48.069" width="571.141" height="281.479" id="hand_x5F_shading_1_">
		<g filter="url(#Adobe_OpacityMaskFilter_1_)">
			<g id="hand_x5F_outerline_1_">
				<defs>
					<filter id="Adobe_OpacityMaskFilter_2_" filterUnits="userSpaceOnUse" x="128.229" y="-0.5" width="499.47" height="113.543">
						<feFlood  style="flood-color:white;flood-opacity:1" result="back"/>
						<feBlend  in="SourceGraphic" in2="back" mode="normal"/>
					</filter>
				</defs>
				<mask maskUnits="userSpaceOnUse" x="128.229" y="-0.5" width="499.47" height="113.543" id="hand_x5F_shading_1_">
					<g filter="url(#Adobe_OpacityMaskFilter_2_)">
						<ellipse opacity="0.7" fill-rule="evenodd" clip-rule="evenodd" cx="40.5" cy="141.667" rx="120.5" ry="200"/>
					</g>
				</mask>
				<linearGradient id="hand_4_" gradientUnits="userSpaceOnUse" x1="128.229" y1="56.2715" x2="627.6992" y2="56.2715">
					<stop  offset="0" style="stop-color:#CEA28B"/>
					<stop  offset="1" style="stop-color:#000000;stop-opacity:0.5"/>
				</linearGradient>
				
					<path id="hand_1_" mask="url(#hand_x5F_shading_1_)" fill-rule="evenodd" clip-rule="evenodd" fill="#ECC19C" stroke="url(#hand_4_)" stroke-miterlimit="10" d="
					M161.333,111.668c0,0,40.336,0.954,46.337,0.869c29.777-0.423,120.392-1.854,142.44-3.87
					c167.217-18.489,167.309-18.874,203.997-34.5c37.881-16.133,58.348-19.68,64.797-35.473c0,0,16.771-15.531,2.62-22.208
					c-21.34-10.069-31.371-18.691-58.417-14.983c-23,3.153-81.698-7.938-121.628,4.739
					c-38.558,12.242-116.424,29.528-123.646,30.681c-15.689,2.504-91.016,13.027-113.727,18.684
					c-15.406,3.837-66.05,1.888-75.644,6.965"/>
				<path fill-rule="evenodd" clip-rule="evenodd" fill="#ECC19C" d="M53.865,129.167c0,0-49.365,92.355,26.385,23.428
					c0,0,63.232-14.743,84.25-47.428s-10.367-51.408-23.184-45.204S53.865,129.167,53.865,129.167z"/>
				<linearGradient id="SVGID_3_" gradientUnits="userSpaceOnUse" x1="5.0918" y1="204.7456" x2="37.2798" y2="204.7456">
					<stop  offset="0" style="stop-color:#CEA28B"/>
					<stop  offset="1" style="stop-color:#000000;stop-opacity:0.5"/>
				</linearGradient>
				<path fill-rule="evenodd" clip-rule="evenodd" fill="#ECC19C" stroke="url(#SVGID_3_)" stroke-miterlimit="10" d="
					M27.476,151.595c0,0-15.127,21.642-18.341,42.072c0,0-4.267,2.26-3.436,9.22s1.111,16.286,4.456,37.033
					s6.913,19.094,6.379,15.747s6.787,2.779,6.787-15c0,0,3.461-9.561-1.93-37.78c0,0,14.723-29.714,15.391-37.208"/>
				<g>
					<path fill-rule="evenodd" clip-rule="evenodd" fill="#ECC19C" d="M152.786,59.661c0,0-22.786-6.567-32.286,5.72
						s-78.903,61.159-86.021,65.743s-3.617,3.333-8.107,14.5s-7.865,39.856-7.369,58.2c0,0-2.036,5.344,1.318,11.344
						c0,0,6.752,20.753,17.404,36.5c0,0,12.333,26,11.304,13c0,0,10.529-3,1-20.5c0,0-5.279-19.54-13.304-37
						c0,0,6.095-12.5,8.935-39"/>
					<g>
						
							<image overflow="visible" width="135.03" height="211.4" xlink:href="6E98EF3.png"  transform="matrix(1 0 0 1 17.895 57.4058)"/>
					</g>
				</g>
				<g>
					<path fill-rule="evenodd" clip-rule="evenodd" fill="#ECC19C" d="M43.907,152.595c0,0,1.407,1.422,0,11.247
						s-6.957,17.073-6.182,41.949c0,0-2.8,8.608,2.487,10.492c0,0,9.536,21.884,12.912,24.884c0,0,1.876,5.5,5.876,10.5s2.5-4,2.5-4
						s6.471-4.901,1.5-16.5c0,0-5.752-18-9.876-25.5c0,0,8.057-22.215,7.466-36.107"/>
					<g>
						
							<image overflow="visible" width="28.876" height="101.436" xlink:href="6E98EFD.png"  transform="matrix(1 0 0 1 36.4858 152.2437)"/>
					</g>
				</g>
				<g>
					<path fill-rule="evenodd" clip-rule="evenodd" fill="#ECC19C" d="M60.667,154.334c0,0-7.188,24.305-5.74,42.607
						c0,0-2.846,6.392,0.781,10.726s0.95,6.074,9.171,16c0,0,12.789,20.333,9.789,7.667c0,0,4.333-2.333-1-13.333
						c0,0-2.333-9.896-6-16.114c0,0,9.003-39.045,7.333-38.553c0,0,9.667,2.915,23.667-8.739c0,0,52.683-14.738,62.667-42.927"/>
					<g>
						
							<image overflow="visible" width="108.438" height="124.485" xlink:href="6E98EFF.png"  transform="matrix(1 0 0 1 53.3667 111.5015)"/>
					</g>
				</g>
			</g>
		</g>
	</mask>
	<g id="hand_x5F_shading">
		<linearGradient id="SVGID_4_" gradientUnits="userSpaceOnUse" x1="147.8857" y1="209.7124" x2="114.2065" y2="117.1793">
			<stop  offset="0" style="stop-color:#F0D0B4"/>
			<stop  offset="0.6617" style="stop-color:#F0D0B4;stop-opacity:0.5"/>
		</linearGradient>
		<path fill-rule="evenodd" clip-rule="evenodd" fill="url(#SVGID_4_)" d="M166.259,111.668c0,0,8.263-3.456,16.502-15.562
			s-11.341,17.561-24.008,8.561s20.389,6.669-53.944,41.669c0,0-18.809,10.665-25.809,10.331s-7.333,5.334-8,8.667
			s0,27.667-4,33.333c-2.884,4.085,0.556,4.793,8.945,30.896s102.722-89.228,102.722-89.228L166.259,111.668z"/>
		<linearGradient id="SVGID_5_" gradientUnits="userSpaceOnUse" x1="429.6895" y1="180.8062" x2="373.3186" y2="25.9285">
			<stop  offset="0" style="stop-color:#F0D0B4"/>
			<stop  offset="0.6617" style="stop-color:#F0D0B4;stop-opacity:0.5"/>
		</linearGradient>
		<path fill-rule="evenodd" clip-rule="evenodd" fill="url(#SVGID_5_)" d="M161.333,111.668c0,0,8.232,3.997,19.668-13.537
			c14-21.464,96.664,28.536,307.331-48.797c0,0,56-19.333,112.667-16c0,0,6.937,13.228,22.802-0.386
			c0,0-51.467,127.268-170.134,130.16S133.666,138.003,161.333,111.668z"/>
		<linearGradient id="SVGID_6_" gradientUnits="userSpaceOnUse" x1="355.0547" y1="110.8569" x2="306.9083" y2="-21.4241">
			<stop  offset="0" style="stop-color:#F0D0B4"/>
			<stop  offset="0.6617" style="stop-color:#F0D0B4;stop-opacity:0.5"/>
		</linearGradient>
		<path opacity="0.3" fill-rule="evenodd" clip-rule="evenodd" fill="url(#SVGID_6_)" d="M52.66,118.465c0,0,0.562,12.319,19.673,0
			c44.266-28.534,40.716-34.712,61.333-45.133s28.667-9.333,70-11.333S359.755,38.998,469,3.999c0,0,113.897-3.784,144.947,8.776
			S596.33-50.667,516.33-48S64.878,66.667,64.878,66.667L52.66,118.465z"/>
	</g>
</g>
</svg>
