<?xml version="1.0" encoding="utf-8"?>
<!-- Generator: Adobe Illustrator 16.0.0, SVG Export Plug-In . SVG Version: 6.00 Build 0)  -->
<!DOCTYPE svg PUBLIC "-//W3C//DTD SVG 1.1//EN" "http://www.w3.org/Graphics/SVG/1.1/DTD/svg11.dtd">
<svg version="1.1" id="Layer_1" xmlns="http://www.w3.org/2000/svg" xmlns:xlink="http://www.w3.org/1999/xlink" x="0px" y="0px"
	 width="600px" height="100px" viewBox="0 0 780 130" enable-background="new 0 0 600 100" xml:space="preserve">
<g>
	<g>
		<g>
			<g>
				<g>
					<path fill="#000000" d="M555.9,27.4c0-0.4-0.3-0.3-0.7,0.6c0,0,0,0.2,0.1,0.4c0,0.2,0,0.4,0,0.4c0,0,0.2-0.3,0.3-0.7
						C555.8,27.8,555.9,27.4,555.9,27.4z"/>
					<path fill="#000000" d="M551.6,31.9c-0.5,0.9-1,2.1-0.2,1.9c0.4-1.1,0.7-1.2,1-2.4c0.5-0.7,1.1-1.1,1.2-0.9
						c0.1-0.3,0.9-1.1,1-1.7c-1,0.8-1.9,1.9-2.7,3.3C551.5,32.4,551.7,32.1,551.6,31.9z"/>
					<path fill="#000000" d="M480.6,66.3l0.5-0.2C481,66.2,480.8,66.2,480.6,66.3z"/>
					<path fill="#000000" d="M458,70.4c0.3-0.2,0.4-0.4,0.4-0.4C458.1,70.2,457.9,70.4,458,70.4z"/>
					<path fill="#000000" d="M451,74c0.1,0,0.2-0.1,0.2-0.1C451.1,73.9,451,73.9,451,74z"/>
					<path fill="#000000" d="M480.6,66.3c0,0-0.3,0.1-0.7,0.2c-0.3,0.1-0.7,0.1-0.7,0.1C479.2,66.8,480,66.5,480.6,66.3z"/>
					<path fill="#000000" d="M543.9,41.3c0.2-0.2,0.4-0.4,0.5-0.6C544.2,40.8,544.1,41,543.9,41.3C543.9,41.2,543.9,41.2,543.9,41.3
						z"/>
					<path fill="#000000" d="M499.4,64.9l0.4,0c0.1-0.1,0.2-0.1,0.3-0.2L499.4,64.9z"/>
					<path fill="#000000" d="M515.8,58.7c-0.4,0.2-0.3,0.6-0.3,0.9c0.1-0.3,0.3-0.5,0.6-0.7C516.1,58.8,516,58.8,515.8,58.7z"/>
					<path fill="#000000" d="M539.7,42.7l0.4-0.4C540,42.4,539.8,42.6,539.7,42.7z"/>
					<path fill="#000000" d="M489.7,59.6c0,0-0.1,0-0.2,0C489.5,59.7,489.6,59.7,489.7,59.6z"/>
					<path fill="#000000" d="M78.2,44.8C78.3,44.8,78.3,44.8,78.2,44.8C78.2,44.7,78.1,44.7,78.2,44.8z"/>
					<path fill="#000000" d="M62.1,30.9l0.3,0.2c0.1,0,0.1-0.1,0.2-0.2L62.1,30.9z"/>
					<path fill="#000000" d="M452.7,70.7C452.6,70.7,452.6,70.7,452.7,70.7C452.3,71.1,452.5,70.9,452.7,70.7z"/>
					<path fill="#000000" d="M340.1,58.6c1.8,0.3-2.8,0.6-0.2,0.9C339.7,59.4,342.3,58.8,340.1,58.6z"/>
					<path fill="#000000" d="M543.5,41.6c-0.2,0.2-0.4,0.3-0.6,0.5C543.2,41.8,543.4,41.7,543.5,41.6z"/>
					<path fill="#000000" d="M340,59.5L340,59.5l0.3,0C340.1,59.6,340.1,59.6,340,59.5z"/>
					<path fill="#000000" d="M455.3,48.2c0.1,0.1,0.3,0.1,0.4,0.1C455.7,48.2,455.6,48.2,455.3,48.2z"/>
					<path fill="#000000" d="M459.3,63.4l0.6-0.5C459.6,63.1,459.4,63.2,459.3,63.4z"/>
					<path fill="#000000" d="M440.5,50.9c-0.4,0-0.5,0-1,0.1c0.1,0,0.1,0,0.2,0C439.8,51,440.1,50.9,440.5,50.9z"/>
					<path fill="#000000" d="M425,52.9c0.1,0,0.2,0,0.3,0c0.2,0,0.3-0.1,0.5-0.1L425,52.9z"/>
					<path fill="#000000" d="M122.9,62.1c-0.3-0.2-0.5-0.4-0.6-0.5C122.4,61.9,120.1,61.5,122.9,62.1z"/>
					<path fill="#000000" d="M543.7,41.1c0,0.1-0.1,0.3-0.2,0.4c0.1-0.1,0.3-0.2,0.4-0.4C543.9,41.1,543.9,41.1,543.7,41.1z"/>
					<path fill="#000000" d="M440.3,54.3l-2.5,0.3C438.6,54.6,439.5,54.5,440.3,54.3z"/>
					<path fill="#000000" d="M235.1,66.5l-0.6,0.1C234.8,66.6,235,66.6,235.1,66.5z"/>
					<path fill="#000000" d="M430.5,55.6c-0.5-0.1-0.9-0.1-1.4-0.1c-0.1,0-0.2,0.1-0.3,0.1L430.5,55.6z"/>
					<path fill="#000000" d="M122.2,61.6C122.2,61.6,122.2,61.6,122.2,61.6C122.2,61.6,122.2,61.6,122.2,61.6z"/>
					<path fill="#000000" d="M106,58.5c2.3,0.7,1.2-0.2,1.8-0.4c2.8,0.6,1.2,0.7,2,1.3c1.8,0.3,3.2,0.2,4.5,0.6
						c0.1,0.1,0.3,0.2,0,0.2c1.9,0.1,5.5,1.2,7.7,1.2c0.1,0.1,0.2,0.1,0.3,0.2c-0.3-0.3-0.3-0.6-0.2-0.8c1,0.2,2,0.1,2.3,0.5
						c-0.6-0.2-0.7,0-1,0l1.1,0.1c0.9,0.7-1.5-0.2-1.6,0.2c1.1,0.1,2.3,0.3,3.4,0.4c1.1,0,2.2,0.1,3,0.3c0.3,0.6-3.9-0.4-1.8,0.4
						c0,0-0.6-0.1-1.3-0.3c-0.3-0.1-0.6-0.1-0.9-0.2c-0.2-0.1-0.4-0.1-0.4-0.1c1.8,1.2-1.5-0.4,0.1,0.8c3.3,0.7,3.8,0.3,7.2,0.9
						c0.8-0.2-0.2-0.4,0.6-0.6c4.8,0.2,3.6,1.8,7.2,1.6c1-0.3,1.4-0.9,3.8-0.3L143,65c3.3,0.3,2-0.7,5.3,0c-0.6,0.2-2.6,0-2.1,0.1
						c2.2,0.7,1.6-0.2,3.3,0l0.3,0.5c1.7,0.1,3.6,0.2,5.5,0.2c1.9,0,3.8,0,5.8,0c-0.2,0.1-0.9,0.3,0,0.5c4.9,0,10.4,0.7,15.1,1
						L178,67c0.4,0,0.8,0.2,0.3,0.3c1.8,0.2,0.1-0.3,1-0.4c1,0,1.4,0.3,0.7,0.4c3.2-0.3,9.2-0.5,12.6-0.1l-0.7,0.1
						c2.7,0.2,3-0.9,5.5-0.5l-0.5,0.1c2.9,0.1,5.9,0.1,8.8,0.1c2.9,0,5.6,0,7.8,0.3c0.8-0.6,5.7,0.2,6.1-0.7c3.3,0.4,2.4,0.5,7,0.7
						c1.2,0,1.8-0.6,3.4-0.8l0.1,0.5l2.1-0.6l1.1,0.5l1.4-0.2c-0.6,0-1.2-0.2-1.1-0.3c1.1-0.1,2.5-0.1,3.6,0c1.1,0.1,1.9,0.2,2,0.3
						l5.3-0.7c-0.1,0.2-1,0.3-1.7,0.5c2.8-0.6,0.5,0.5,3.1-0.1c-0.4-0.1,0.2-0.3,0.2-0.4c1.3,0.2,4.3,0.1,6.4-0.2l-0.4,0.3
						c3.9-0.1,8.2-0.6,12.6-0.8c-1.6-0.1-1.3-0.6,0-0.8l0.5,0.5c0.8-0.3-1.4-0.1,0.3-0.6c1.6,0,1.1,0.5,0.2,0.7l2-0.3
						c0.1,0.1-0.3,0.2-0.5,0.4c0.8-0.3,3.5,0.3,4.6-0.3l0.1,0.1c4.4-0.2,6.4-0.5,10-0.7c0.1-0.4,1.5-0.4,2.5-0.8
						c2.6,0,5.6,0.3,8.7,0.1c2.2-0.3,0.6-0.4,1.6-0.7c0.2,0.4,3.3,0.2,1.7,0.6c3.8-0.2,4.9-0.2,9.7-0.7c-0.5-0.1-1.1-0.2-0.8-0.3
						c0.9-0.1,2,0.1,1.9,0.3l-0.2,0c5.4-0.7,12.5,0.7,16.8-0.2l-0.2,0c0,0,1.1-0.1,2.2-0.3c1.1-0.2,2.2-0.3,2.2-0.3
						c2.1,0-1.2,0.3,0.3,0.5c4.8-0.9,7.6-0.3,11.6-0.9c3.1,1,10.9-0.6,15.1-0.1l-0.3-0.3c1.1-0.3,1.3,0.1,2.1,0.1
						c-0.1-0.2-1.2-0.2-0.5-0.4c4.5-0.4,9.2-0.6,13.9-0.7c4.7-0.1,9.5-0.2,14.1-0.4c3.4-0.2,1.8-1.5,6.2-1.2l-1.2,0.6
						c3.4-0.5,6.9-0.8,10.4-1.1c3.5-0.3,7-0.5,10.3-1.1c-0.4,0.2-0.4,0.3-1,0.4c1.5,0.2,5.2-0.5,5.2-0.8c1-0.1,0.3,0.2,0.9,0.3
						c1.4,0.1,3.5-0.8,4.3-0.5c0.1,0-0.4,0.2-0.6,0.2c0.9-0.3,4.3-0.4,3.4-0.7c2.5-0.1,4.8-0.8,6.8-0.7c1.3-0.6,4.3-0.3,4.7-1
						c-0.1,0.7,4.5,0,6-0.5c-0.5,0.3,1.4,0,0.8,0.4c1.8-0.3,3.5-0.6,3.1-0.9c3.5,0.3,6.6-1.6,8.6-0.8c2.7-0.6,5.2-1.2,7.7-1.8
						c1.2-0.3,2.5-0.5,3.7-0.8l0.2,0l0.1,0l0.2-0.1l0.4-0.1l0.4-0.1l0.2-0.1l0.1,0l0.1,0l0,0.1c-0.1,0.1-0.4,0.3-0.6,0.4
						c-0.2,0.1-0.4,0.1-0.6,0.2c-0.2,0-0.3,0.1-0.4,0.1c-0.3,0.1-0.6,0.1-0.8,0.2c-0.4,0.1-0.7,0.3-0.6,0.4c0.6-0.1,1.1-0.3,1.6-0.4
						c0.2-0.1,0.2-0.1,0.4-0.2c0.1-0.1,0.3-0.1,0.5-0.2c0.3-0.2,0.2,0,0.3,0.2c0.1,0.3,0.1,0.6,0,1.1c-0.2,0.8-0.6,1.7-1.1,2.6
						c-0.6,0.9,0.1-0.7,0.1-1.1c-0.8,1.9-2.1,3.6-3.4,5.2c-1.4,1.5-2.9,3-4.2,4.5c0-0.1,0.2-0.4,0.5-0.7c-0.6,0.6-1.4,1.2-1.2,1.4
						l0.5-0.6c1.3-0.5-1.7,2.9-1.7,3.1c0.4-1.6-3.1,2.6-2.3,0.3c-0.4,0.4-0.7,1-0.5,1c-0.6,0.5-0.9,0.6-0.5-0.1
						c-2,2.2-1,1.7-2.9,3.6c-0.1-0.1,0.2-0.5,0.3-0.9l-0.3,0.5c-0.1,0.2-0.2,0.3-0.3,0.5c-0.3,0.5-0.6,0.9-0.9,1.3
						c-0.6,0.9-1.2,1.9-2,3.1c0-0.1-0.4,0.3,0-0.5c-0.6,1-0.9,1.9-1.3,2.8c-0.2,0.4-0.3,0.8-0.4,1.3l-0.2,0.6c0,0,0,0.1,0,0.1l0.1,0
						l0.2,0.1c2.1-0.8,4.3-1.7,6.9-2.7c-1.6,1.5,1.6-0.6,2.1-0.2c0,0,0.2-0.1,0.5-0.3c0.3-0.2,0.5-0.3,0.8-0.5c0.5-0.3,1-0.6,1-0.6
						l-0.9,0.2c1.8-1,3-2.3,4.6-3.1c0,0-0.3,0.3-0.6,0.5c-0.3,0.2-0.6,0.5-0.6,0.5s0.8-0.5,1.5-1.1c0.8-0.6,1.5-1.1,1.5-1.1l-1.9,1
						c1.5-1.4-0.6-0.5,1.7-1.8c-0.4,0.4,1.6-1.2,2.6-1.5c0,0,0,0,0,0c0.7-0.7,1.3-1.5,2.6-2.3c0.4-0.1,0.2,0.7,0.4,0.6
						c0.5-1,3.5-3,4.1-4.2c-0.2,0.4-0.1,0.6,0.1,0.5l0.4-0.8c0.8-0.5,0.9-0.5,1-0.3c2.2-1.7-1.1,0,1.6-1.8c-0.2,0.2,0,0.2-0.4,0.5
						c2.6-2,4.7-4.2,7.2-5.9c1-0.1-2,1.7-0.9,1.5c1.6-1.3,3.1-2.6,4.8-3.9c-0.4-0.5-0.9-1-1.3-1.4c-1.4,2-2.7,4-3.9,5.9l0.5-0.6
						c0.1,0.2,0,0.5-0.2,0.8c-0.2,0.3-0.4,0.7-0.7,1.1c-0.6,0.8-1.2,1.9-1.5,2.9c0.1-0.5-0.1-0.8-0.1-0.6c-0.3,0.7-0.5,1.4-0.7,2.2
						c-0.1,0.4-0.2,0.8-0.2,1.2c0,0.2-0.1,0.5-0.1,0.8c0,0.3-0.1,0.6-0.1,0.8c0,0.6,0,1.1,0,1.7c0,0.3,0,0.6,0,0.8l0,0.4
						c0,0,0,0.1,0,0.1l0.1,0l0.2,0c1.3-0.1,2.5-0.3,3.9-0.7c0,0-0.2,0.1-0.3,0.2c-0.2,0.1-0.3,0.2-0.3,0.2c0.3,0,0.6-0.1,0.9-0.2
						c0.3-0.1,0.5-0.1,0.8-0.2c0.5-0.2,1.1-0.4,1.6-0.6c1.1-0.5,2.1-1,3-1.5c0.4-0.5,1.3-1,0.6-0.9c1.3-0.5,2.4-1.2,3.4-2l0.3-0.2
						l0.2-0.2c0.1-0.1,0.3-0.3,0.4-0.4c0.1-0.1,0.3-0.3,0.4-0.4l0.2-0.2l0.1-0.1c0,0,0,0.1,0,0.1c0.3,0.8,0.6,1.4,1.8,2.7
						c1,1.1,2.4,1.8,3.7,2.4c-0.6-0.1-1.6-0.3-1.1-0.1c0,0,0.3,0.1,0.7,0.2c0.4,0.1,1,0.2,1.6,0.2c1.2,0.1,2.3-0.1,2.3-0.1
						c-0.4-0.3-0.6-0.2-1.5-0.5c0.6-0.2,1.8-0.4,2.8-0.5c-1.9,0.5,0.1,0.6,1,0.6c-0.2-0.1,0.1-0.2,0-0.3c1.2,0.1,1.2-0.1,1.4-0.4
						c0.1-0.2,0.4-0.5,1.9-0.8l-0.1,0.2c1.1-0.4,2-1,3.1-1.4c0.6,0.2-1.1,0.6-1,1c1.6-0.6,2.9-2,4.5-2.3c-0.6,0.4-1.6,0.9-2.2,1.3
						c1.8-0.3,1.9-0.5,3.1-0.9l-0.1,0c0,0,0.7-0.3,1.4-0.6c0.7-0.3,1.4-0.6,1.4-0.6l-0.7,0.2c1.4-1.9,3.8-2.3,5.9-4.4
						c-2.1,2-0.2,0.6-0.2,1.1c0.7-0.3,1.7-0.8,1.5-0.5c1-1,2.1-1,3.4-2.5c0.2,0.1,1.2-0.8,1.2-0.3c1.4-1.1-0.5,0-0.5-0.2
						c2-2,5.7-3.2,8.4-6.2c2.5-2.3,2.7-3.1,5-5.3c1-0.5-0.3,1-0.3,1c1.5-0.9,2.4-1.8,3.5-3c-0.2,0.3,0.2,0.2,0.6,0
						c1-0.9,0.3-1,1.7-2c-0.1,0.3-0.2,0.8-0.6,1.3c1.1-1.1,2-2.4,3-3.6c0.5-0.1-0.4,0.9-0.7,1.5c1.2-1.3,3.2-3.4,3.3-4.1l-0.9,0.7
						c0.4-0.5,0.5,0,0.2,0.4c-0.9,1.3-1.7,1.5-1.8,1.4l0.7-0.9c-1.4,0.2-3.2,3.3-4.9,4.8l0.3-1.1l-1.4,1.9c-0.5,0.2-1,0.2-0.2-0.6
						c-1.4,0.8-0.9,1.1-2.2,1.8c-0.2,0.1-0.1,0,0-0.1l-1.1,1.2c0.2-0.3-0.5-0.2,0.3-0.7c-2.4,1.6-3.3,3.3-4.4,3.6l0.2-0.2
						c-3,2.6,0,0.6-2.1,2.8l-2.3,0.3l0,0.6c-0.3,0.2-1,0.7-1,0.4c-1,1.2,0.3,0-0.2,0.8c-1.8,0.8-4.4,3.3-5.1,2.9
						c-0.4,0.7,1.7-0.8,0.1,0.5c-0.9-0.3-2,1.5-3.7,2.1c0.3-0.6,1.8-1.4,0.1-0.7c-0.6,1.2-3.1,1.7-4.3,2.5c0.2,0.5-2.8,1.8-5,3
						c0-0.1-1.1,0.3-2.5,0.8c-1.4,0.5-3.1,1-4.3,1.3l0-0.1c-0.3,0.7-2.6,1.2-4.3,1.5c0-0.3,0.3-0.5,1.2-0.8c0,0-0.4,0.1-0.8,0.1
						c-0.4,0.1-0.8,0.1-0.8,0.1c-0.4,0.2-0.8,0.3-1.9,0.3l0.4-0.4c-1,0-2-0.1-3-0.4c-1-0.4-1.9-1-2.5-2.3c-0.2,0.1-0.1,0.7-0.2,1
						c0,0.2-0.1,0.3-0.3,0.1c-0.1-0.1-0.2-0.2-0.4-0.3c-0.2-0.1-0.3-0.4-0.5-0.6c0.1-0.2,0.3-0.8,0.7,0c-0.2-0.3-0.6-0.8-0.7-1.4
						c0,0,0.2,0.2,0.4,0.4c0.2,0.3,0.4,0.5,0.4,0.5c-0.3-0.8-0.4-1-0.5-1c-0.1-0.1-0.2,0-0.4-0.6c0.1-0.3,0-0.8,0-1.2
						c0-0.1,0-0.2,0-0.3c0,0,0,0,0.1,0c0.1,0.4,0.2,1.3,0.5,1.6c-0.2-0.6-0.3-1.2-0.4-1.8c-0.1-0.2-0.3,0.1-0.5,0.2
						c-0.2,0.1-0.4,0.3-0.5,0.4c-0.3,0.2-0.6,0.4-0.8,0.5c0.1,0.1,0,0.5-0.8,1.3c-0.5,0.5-0.9,0.8-1,0.8c-0.2,0.1-0.3,0.1-0.3,0.1
						c-0.1,0-0.2-0.2-0.7,0.2c-0.3,0.5-1.5,1.1-1.3,1.5c-0.5,0.4-0.7,0.2-1,0.3c-0.4,0.4-1.5,1.1-2.4,1.5c-0.9,0.5-1.5,0.8-0.8,0.8
						l0.3-0.1c0,0-0.1,0.1-0.2,0.1c0,0,0,0,0,0l0,0c-0.4,0.2-0.8,0.4-1.3,0.6c-0.4,0.2-0.9,0.3-1.3,0.4c-0.8,0.2-1.6,0.3-2.3,0.2
						c0.1-0.8,0.1-1.6,0.4-2.3l0.1-0.6l0.1-0.7c0.1-0.4,0.3-0.9,0.4-1.3l0.1,0.1c0.5-2.1,1.8-4.5,2.4-6c0.3-0.6,1.1-1.1,1.1-0.8
						c0.8-1.4,0.9-1.7,2.4-3.3l3.1-3.3l-4.1,2.2c0,0-0.1,0.1-0.3,0.1c0.1-0.1,0.2-0.2,0.2-0.2l1.1,1.2c-0.5,1,0.6-0.4-0.8,1.2
						c0.4-0.4,0.7-0.8,1-1.1l4.7-5.2l-6.2,3.7c-1,0.6-1.7,1-2.9,2.3c0.4-0.8-1.7,0.6-2.4,1.4c0,0,0.4-0.2,0.7-0.4
						c0.4-0.2,0.7-0.4,0.7-0.4c-0.9,0.8-1.8,1.4-2.6,2l0.1-0.7c-4,2.4-5.7,6.1-9,7.5c-0.7,1,2.1-1.4,1.5-0.4
						c-1.7,1.3-3.8,2.1-4.3,2.5c-2.4,1.5-1.6,2.2-4.1,3.9c0.4-0.1,1,0.1-0.7,1.5c-1.8,1.1-2.5,0.8-1.5,0c0.4-0.3,0.6-0.4,0.6-0.3
						c0.5-0.4,1.2-1,0.4-0.7l-0.1,0.3c-0.5,0.2-1.3,0.7-1.9,1.1c-0.7,0.4-1.2,0.6-1,0.3c-1.2,1-0.4,0.6,0.6,0.1
						c-1.2,0.6-2,1.2-2.9,1.7c-0.4,0.3-0.9,0.5-1.4,0.8c-0.4,0.2-0.6,0.3-0.9,0.4c0.2,0,0.4,0.1,0.2,0.2c-0.5,0.2-0.8,0.4-1,0.4
						c-0.2,0.1-0.3,0.2-0.5,0.3c-0.3,0.2-0.5,0.5-1.4,0.9c-0.3-0.1,0.1-0.4,0.3-0.6c0.2-0.2,0.2-0.3-0.5,0.1c0,0-0.1,0.1-0.2,0.1
						c-0.1,0,0-0.1,0.1-0.2c0.1-0.1,0.2-0.2,0.2-0.3c0.1-0.1,0.3-0.2,0.4-0.3c0.1-0.1,0.2-0.1,0.3-0.2c0.1-0.1,0.3-0.2,0.4-0.3
						c0,0,0,0,0,0l0,0l-0.2,0.1c0,0,0,0,0-0.1c0-0.1,0-0.1,0.1-0.2c0.1-0.2,0.3-0.4,0.4-0.5c0.4-0.4,0.7-0.5,0.8-0.6
						c0,0,0.1,0.1,0.1,0.1c-0.1,0,0-0.1,0-0.1c0,0-0.5,0.1-0.5,0.1c0.2-0.2,0.3-0.3,0.4-0.2c-0.1-0.1-0.2-0.2-0.4-0.2
						c-0.2-0.1-0.4-0.1-0.2-0.5c0.8-0.6,2-2.4,2.6-2.3c-2.4,2.2,0.6,0.1-1.2,2.1c0.3-0.4,0.7-0.9,1.3-1.4c0.1,0,0,0.1-0.1,0.3
						c2.5-1.8,0.6-1.4,3-3.5c-0.1,0.5,0.9-0.1,1.2-0.5c-1,0.9-0.8,0.1,0-0.9c1.7-1.3,1.6-1.7,2.4-2.4l-1,0.8
						c0.1-0.5,0.9-1.2,1.9-2.3c0.2,0.1-0.9,1-0.4,0.7c0.8-1.5,3-2.3,4.2-4.3c0.8-0.7,0.5,0.2,1.1-0.5c0.7-1.2,1.1-1.8,1.6-2.4
						c0.5-0.6,0.9-1.3,1.3-2.8c-0.3,0.4-0.5,0.5-0.5,0.4c0-0.1,0-0.2,0.1-0.5c0-0.1,0-0.3,0.1-0.5c0-0.2,0.1-0.6,0.1-0.9
						c0,0-0.1,0.4-0.2,1c-0.1,0.4-0.3,1-0.5,1.6c-0.4,1.1-1,2.1-1,2.1c0,0,0.1-0.2,0.2-0.4c0.1-0.3,0.2-0.6,0.3-1
						c0.2-0.7,0.4-1.5,0.4-1.5c-0.5,1.3-1.1,2.8-1.6,3.4c0.5-1.3,0.5-1.2-0.1-0.8c0.7-0.7,1.1-1.5,1.4-2.5c0.2-0.5,0.3-0.9,0.4-1.5
						c0.2-0.6,0.3-1.2,0.5-1.9l0.9-0.2c0.1-0.6,0.2-1.2,0.2-1.8c0-0.3,0-0.6,0.1-0.9l0-0.4c0-0.1,0.1-0.4-0.1-0.3
						c-1.2,0.2-2.4,0.4-3.6,0.6c-0.6,0.1-1.1,0.2-1.7,0.3c-0.4,0.1-0.8,0.2-1.2,0.3c-0.8,0.2-1.7,0.3-2.7,0.5l1.3-0.1
						c-0.5,0.4-2.5,0.5-3.7,0.8c0.1-0.3-0.8-0.3-1.3-0.4c0.1,0.2-2.9,0.5-3.2,1.1l-1.8-0.1c-3.3,0.3-3.6,1.4-6.7,1.7
						c0.9-0.5-0.6-0.5,1.5-1c-1,0.1-2,0.2-2,0.4c-0.6-0.1-2.8,0.8-3.8,0.7c-0.4,0.2-0.5,0.5-1.7,0.7c-0.1,0,0-0.1,0-0.1
						c0,0.2-1.8,0.4-0.7,0.6c-3.3-0.5-9,1.1-11.9,0.7c-2.3,0.4-5,0.7-7.1,1c0.1-0.1,0-0.1,0.4-0.2c-2.9,0-1.7,1-5,1
						c-1.7-0.3,1.7-0.4,0.6-0.5c-0.5-0.9-3.9,0.5-6.1,0.2l0.5-0.1c-1.7-0.2-4,0.7-6.8,0.9c0,0,0.1-0.1,0-0.1c-1.8,0.7-5.4,1.1-8,1.5
						c0.8-0.5,1.2-0.3,0.6-0.6c-1.2,0.2,0.4,0.6-2,0.9c-0.8-0.2-2.5-0.2-2.8-0.6l2.2-0.2c-1.2-0.5-2.9,0.2-4.1,0.2l0.1-0.2
						c-3.4,0.3-3.4,0.9-7.1,1.1l0.4,0.1c-2,0.7-1.7-0.2-3.7,0.4l-0.6-0.6c-1.3,0.2-4.6,0.9-7,1.1c1.3-0.5,4.1-0.9,5.8-1.3
						c-1.3,0.1-4.4,0.3-5.1,0.7c0.5-0.1,1.2-0.3,1.7-0.2c-1.6,0.6-3.7,0.9-6.3,1.1c0.4-1.2-6.8,0.1-8.8-0.7
						c-4.6,0.7-9.2,0.3-14.6,0.6c2,0.8-1.6,0.1-1.2,1c-1.3,0.1-1.7,0.1-1.8,0.1l-3.8-0.4c-0.9-0.2,1.2-0.3,1.1-0.5
						c-2.7,0.1-1.2-0.3-3-0.5c0.4,0.3-0.9,0.5-2.5,0.5l2.2,0.3c-3.8,0.7-3.3-0.6-7.2,0.1l1.2-0.3c-2,0.3-7.3,0.3-9.2,1.1
						c-0.4-0.1-0.8-0.3,0-0.4c-4.8,0-10.5,1.1-14.2,0.8l0.4-0.2c-0.9,0.1-1.5,0.5-2.6,0.3c0.1-0.1,0.4-0.2-0.1-0.2
						c-0.5,0.1-2.3,0.5-3.5,0.4l1-0.3c-4.6-0.1-7.1,0.8-11,1.1c0-0.7-3.7-0.8-5.5-0.8l0.1-0.1c-2.7,0-5,0.3-7.2,0.6
						c-2.2,0.3-4.4,0.6-6.9,0.9c-3.1-0.6-10.5,0.2-15.5,0.1c0.8,0.1-0.1,0.5-1,0.6c-1.2-0.1-3.2,0.6-3.1,0l0.4,0
						c-0.9-0.5-3.3-0.3-5.2-0.2l-0.3,0.8c-2.5-0.5-5.7-0.2-8.6,0.1c-2.9,0.2-5.6,0.5-6.9,0c-1.2,0.2-2.6,0.3-3.8,0.5l0-0.4
						c-3.3,0-4.9,0-9,0.2l0.8-0.3c-2.3,0-2.9,1.3-5,1.3l-0.6-0.6c-2,0-4-0.1-6-0.1c-2-0.1-4-0.1-6,0.2c0.1-0.1,0.2-0.3,0.8-0.3
						c-1.9,0-7.3-0.4-6.6,0.4c0-0.6-4.1,0-6.3,0.2l0.3-0.4c-1.8,0.5-1.9,0.6-4.4,0.7c-0.6-0.1-0.5-0.3,0.3-0.2c-2-0.3-1.6,0.4-4,0.1
						l0.9-0.2c-2.1-0.1-1.9,0.1-3,0.3c-1.3,0.1-3.9-0.2-4.2-0.6c-0.3,0.2-1.4,0.5-2.6,0.3c-0.2-0.2,0.3-0.2,0.5-0.2
						c-3.4-0.5-5.1,0.2-7.5-0.3c0-0.1-0.2-0.2-0.4-0.3c2.7,0.2,4.9,0.3,4.7,0.3c0-0.4-2.2-0.6-0.4-1c-1.8,0.2-4.8,0.7-7,0.4
						c-0.1,0-0.2-0.1-0.3-0.1l0.2,0c-0.5-0.1-0.9-0.1-1.4,0c-0.7-0.1-1.1-0.2-1.8-0.2c-0.2-0.3-2.5-0.3-3.6-0.4
						c0.1,0.4-1.4,0.2-0.1,0.7c-0.2,0,0.2,0,0.9,0c0.2,0,0.4,0,0.5,0c0,0,0,0-0.1,0c0.7,0,1.7,0.1,2.7,0.1c-0.9,0.2-1.8,0.3-3,0
						c-0.6,0.2-1.2,0.4-1.6,0.5c-1.5-0.7-4.3-1.3-4.7-1.7c-1.7,0-3.7-0.2-5.5-0.2c-1.8,0-3.5,0-4.6,0.2c-1,0-1.1-0.4-1.4-0.5
						c0.6,0,1.2,0.1,1.5,0c-1.9-0.1-5.6-0.7-6.1-0.2c-2.3-0.6,1.4-0.3-1.9-0.7l0.5-0.1c-1.6-0.4-3-0.7-4.4-0.8
						c-1.4-0.2-2.7-0.3-4.1-0.5c-1.4-0.1-2.8-0.3-4.2-0.6c-0.7-0.1-1.5-0.3-2.3-0.5c-0.8-0.2-1.6-0.6-2.4-0.9
						c0.5,0.2,0.7,0.3,0.8,0.4c-1.9-0.7-3.9-1.3-6-1.8l-1.5-0.4l-1.5-0.5l-3-1c-1-0.3-2-0.7-3-1c-1-0.3-1.9-0.8-2.9-1.2
						c-0.9-0.4-1.9-0.9-2.8-1.3c-0.9-0.5-1.8-0.9-2.7-1.5c-1.9-1.2-2.3-1-3.7-1.5l-0.2-0.6l-2.4-0.7c-1.5-0.7-2.7-1.8-3.9-2.8
						c-1.2-1.1-2.6-2.1-4.5-3l0.3,0.6c-1.2-0.9-4.2-2.7-3.7-2.8c-0.2,0-0.6,0-1-0.5l0.1-0.2c0,0-0.8-0.5-1.7-0.9
						c-0.8-0.5-1.7-1-1.7-1c-2.3-1.9,0.9-0.5-2.5-3.1c-1.4-0.9-4.1-2.1-3.7-1.7c0.5,0.4,1.3,1.1,1.2,1.3l-1.3-0.8
						c-0.6,0.4-2,0.3,0.7,2.8l2.3,1.1l0.5,0.8L64,34.6c0.8,1,1.6,1.2,2.4,1.5c0.1,0.3,0.3,0.6,0.6,0.9l2.4,0.9
						c0.1,0.4-1.2-0.2,0.1,0.9c1.1,0.4-0.6-1.1,1.1-0.2c0.8,0.9,0.4,1,1.7,1.5c0.1,0.3-0.3,0.2-0.8-0.1c1.2,0.5,2.8,1.8,3.6,1.9
						c0.8,1.1,3.6,2.3,3.2,2.8c0.4,0.1,2.2,0.8,3.2,1.3c-2.2-0.5,3.7,2.4,2.8,2.7c0.9,0.1,2.2,0.7,3.6,1.4c1.4,0.7,2.9,1.6,4.3,1.9
						c-0.2,0-0.5,0-0.7-0.2c1.4,0.7,1.8,1.1,2.6,1.6c0.4-0.5,2.7,0.4,4.1,0.6c0.8,0.6,0.5,0.7,0,0.7c-0.5,0-1.1-0.1-0.9,0.3
						c0.1-0.4,3.3,0.7,2.9,0.1c1.3,0.8,1.1,0.6,1.7,1.3c0.5-0.6,1.3,0.3,2.7,0.3c1,0.5,1,0.7,1.2,0.9c0.1,0.1,0.3,0.3,1.5,0.5
						C108,58.8,106,58.5,106,58.5z M161.1,65.7L161.1,65.7c-0.5,0-0.9,0-1.1,0C160.2,65.7,160.5,65.7,161.1,65.7z M165.7,66
						c-0.6,0-1.3-0.1-2-0.1c-0.2-0.2,0-0.3,0.5-0.3C163.9,65.7,165,65.8,165.7,66z M156.1,62.5c0.7,0,1,0.1,1.1,0.2
						c-0.3,0-0.8,0-1.3,0c0,0-0.1,0-0.1,0C155.9,62.7,155.9,62.6,156.1,62.5z"/>
					<path fill="#000000" d="M154.7,63c-0.1,0-0.2,0-0.3,0c0.1,0.1,0.3,0.1,0.4,0.1c0.1,0,0.2-0.1,0.3-0.1C155,63,154.9,63,154.7,63
						z"/>
					<path fill="#000000" d="M481.2,66.1L481.2,66.1c0,0,0.1,0,0.1,0C481.3,66.1,481.3,66.1,481.2,66.1z"/>
					<polygon fill="#000000" points="230,66.9 230,66.8 229.6,66.9 					"/>
					<path fill="#000000" d="M502,66.5c0.1,0,0.2,0,0.4,0C502.4,66.5,502.2,66.5,502,66.5z"/>
					<path fill="#000000" d="M512.6,62.8l1.5-0.6C513.5,62.4,513,62.6,512.6,62.8z"/>
					<path fill="#000000" d="M520.3,58.8c0.1-0.1,0.1-0.2,0-0.2l0,0L520.3,58.8z"/>
					<path fill="#000000" d="M456.9,61.7c0.1-0.1,0.2-0.2,0.2-0.2C457.6,60.9,457.3,61.3,456.9,61.7z"/>
					<path fill="#000000" d="M462.8,68.8c-0.3,0.3-0.6,0.6-0.9,0.9C462.5,69.4,462.9,69,462.8,68.8z"/>
					<path fill="#000000" d="M440.6,54.3C440.6,54.3,440.6,54.3,440.6,54.3c-0.1,0-0.2,0-0.3,0L440.6,54.3z"/>
					<path fill="#000000" d="M460.4,70.9c0.6-0.4,1.1-0.7,1.5-1.1C461.4,70.1,460.8,70.5,460.4,70.9z"/>
					<path fill="#000000" d="M549.5,36l0.3-0.3c0,0,0,0,0-0.1L549.5,36z"/>
					<path fill="#000000" d="M549.8,35.7l0.3-0.4C549.9,35.5,549.8,35.6,549.8,35.7z"/>
					<path fill="#000000" d="M550.7,34.5l-0.6,0.8C550.3,35.1,550.6,34.8,550.7,34.5z"/>
					<path fill="#000000" d="M541,43.6l0,0.2C541.1,43.7,541.1,43.7,541,43.6z"/>
					<path fill="#000000" d="M538.4,45.8c0.7-0.5,1.8-1.1,2.6-1.9l0-0.2C540.8,44.3,538.9,45.2,538.4,45.8z"/>
					<path fill="#000000" d="M525.9,52.9l2.4-1.5c-0.5,0.2-1.2,0.4-0.1-0.4C524.9,52.7,529,50.9,525.9,52.9z"/>
					<path fill="#000000" d="M518.3,57.5c1.3-0.8-0.1-0.2-0.1-0.3C517.5,57.8,517.3,58,518.3,57.5z"/>
					<path fill="#000000" d="M481.7,55.3l0.2,0.3C482.6,54.7,481.8,55.6,481.7,55.3z"/>
					<polygon fill="#000000" points="476.6,58.1 477.6,57.5 477.8,56.9 					"/>
					<polygon fill="#000000" points="469.3,60.6 469.6,60.2 468.2,61.6 					"/>
					<path fill="#000000" d="M427.8,52.2l0.4,0.4C429,52.4,429.1,51.9,427.8,52.2z"/>
					<path fill="#000000" d="M381.5,56.9c-0.5-0.2-1.8-0.3-2.6,0C380,56.9,381,57,381.5,56.9z"/>
					<polygon fill="#000000" points="242.1,62.6 243.1,62.4 241.3,62.6 					"/>
				</g>
			</g>
		</g>
	</g>
</g>
</svg>
